<svg width="362" height="382" viewBox="0 0 362 382" fill="none" xmlns="http://www.w3.org/2000/svg">
<path fill-rule="evenodd" clip-rule="evenodd" d="M10 154.051C10 157.496 12.0748 160.6 15.2611 161.924C54.1722 178.09 297.046 279.008 344.108 298.563C345.867 299.294 347.876 299.099 349.461 298.045C351.048 296.991 352 295.217 352 293.317C352 276.995 352 241.73 352 227.949C352 224.504 349.925 221.4 346.739 220.076C307.828 203.91 64.9537 102.992 17.8917 83.4374C16.1332 82.7057 14.1239 82.9011 12.5393 83.9552C10.9519 85.0094 10 86.7829 10 88.6835C10 105.005 10 140.27 10 154.051Z" fill="#27282D"/>
<path fill-rule="evenodd" clip-rule="evenodd" d="M54.0877 15.956C50.1155 16.1567 46.8102 19.0705 46.1264 22.9783C45.4455 26.886 47.5677 30.7444 51.2391 32.2693C124.837 62.8523 293.734 133.035 343.144 153.564C345.32 154.469 347.831 153.938 349.448 152.228C351.068 150.518 351.46 147.99 350.433 145.872C339.007 122.361 316.034 75.0787 310.133 62.9356C309.225 61.0682 307.667 59.5989 305.747 58.7994C291.348 52.8174 228.506 26.7039 200.398 15.0239C191.395 11.2859 181.672 9.59435 171.932 10.082C145.897 11.3785 91.1475 14.1102 54.0877 15.956Z" fill="#27282D"/>
<path fill-rule="evenodd" clip-rule="evenodd" d="M307.912 366.044C311.884 365.843 315.19 362.929 315.874 359.022C316.555 355.114 314.432 351.256 310.761 349.731C237.163 319.148 68.2662 248.965 18.8559 228.436C16.6798 227.531 14.1688 228.062 12.5516 229.772C10.9315 231.482 10.54 234.01 11.5671 236.128C22.9926 259.639 45.9656 306.921 51.867 319.064C52.7749 320.932 54.3326 322.401 56.2534 323.201C70.6523 329.183 133.494 355.296 161.602 366.976C170.605 370.714 180.328 372.406 190.068 371.918C216.103 370.622 270.853 367.89 307.912 366.044Z" fill="#27282D"/>
</svg>
