<svg width="22" height="24" viewBox="0 0 22 24" fill="none" xmlns="http://www.w3.org/2000/svg">
<g clip-path="url(#clip0_526_2374)">
<path fill-rule="evenodd" clip-rule="evenodd" d="M0.172363 9.58133C0.172363 9.79583 0.301954 9.98909 0.500968 10.0715C2.93133 11.0782 18.1011 17.3623 21.0406 18.58C21.1504 18.6256 21.2759 18.6134 21.3748 18.5478C21.474 18.4821 21.5335 18.3717 21.5335 18.2533C21.5335 17.237 21.5335 15.0411 21.5335 14.1829C21.5335 13.9684 21.4039 13.7751 21.2049 13.6927C18.7745 12.686 3.60474 6.4019 0.665271 5.18422C0.555439 5.13866 0.429942 5.15082 0.330969 5.21646C0.231818 5.28211 0.172363 5.39254 0.172363 5.51089C0.172363 6.5272 0.172363 8.72315 0.172363 9.58133Z" fill="white" fill-opacity="0.9"/>
<path fill-rule="evenodd" clip-rule="evenodd" d="M2.81814 0.928985C2.56776 0.941561 2.35942 1.1242 2.31632 1.36914C2.2734 1.61407 2.40717 1.85591 2.63858 1.95149C7.27764 3.86841 17.9237 8.2674 21.0382 9.55419C21.1753 9.61087 21.3336 9.5776 21.4355 9.47041C21.5376 9.36323 21.5623 9.20477 21.4976 9.07205C20.7774 7.59837 19.3294 4.63476 18.9574 3.87364C18.9001 3.75659 18.802 3.66449 18.6809 3.61438C17.7733 3.23943 13.8122 1.60266 12.0405 0.870557C11.473 0.636261 10.8601 0.530238 10.2462 0.560807C8.60516 0.642065 5.15412 0.813288 2.81814 0.928985Z" fill="white" fill-opacity="0.9"/>
<path fill-rule="evenodd" clip-rule="evenodd" d="M18.8874 22.8354C19.1378 22.8228 19.3461 22.6402 19.3892 22.3953C19.4322 22.1503 19.2984 21.9085 19.067 21.8129C14.4279 19.896 3.78188 15.497 0.667412 14.2102C0.530243 14.1535 0.371971 14.1868 0.270035 14.294C0.167917 14.4012 0.143238 14.5596 0.207977 14.6924C0.928158 16.166 2.37621 19.1296 2.74819 19.8908C2.80542 20.0078 2.9036 20.0999 3.02468 20.15C3.93228 20.525 7.89336 22.1617 9.66511 22.8938C10.2326 23.1281 10.8454 23.2342 11.4594 23.2036C13.1004 23.1223 16.5514 22.9511 18.8874 22.8354Z" fill="white" fill-opacity="0.9"/>
</g>
<defs>
<clipPath id="clip0_526_2374">
<rect width="21.7056" height="23.1212" fill="white" transform="translate(0 0.321533)"/>
</clipPath>
</defs>
</svg>
